# MagicaVoxel @ Ephtracy

# material
mtllib payload.mtl
usemtl palette

# normals
vn -1 0 0
vn 1 0 0
vn 0 0 1
vn 0 0 -1
vn 0 -1 0
vn 0 1 0

# texcoords
vt 0.0996094 0.5
vt 0.728516 0.5

# verts
v -15 1 1
v -15 1 -1
v -15 15 15
v -15 15 1
v -15 15 -1
v -15 15 -15
v -15 17 15
v -15 17 1
v -15 17 -1
v -15 17 -15
v -15 31 1
v -15 31 -1
v -14 2 13
v -14 2 1
v -14 2 -1
v -14 2 -13
v -14 3 14
v -14 3 13
v -14 3 -13
v -14 3 -14
v -14 15 14
v -14 15 1
v -14 15 -1
v -14 15 -14
v -14 17 14
v -14 17 1
v -14 17 -1
v -14 17 -14
v -14 29 14
v -14 29 13
v -14 29 -13
v -14 29 -14
v -14 30 13
v -14 30 1
v -14 30 -1
v -14 30 -13
v -13 2 14
v -13 2 13
v -13 2 -13
v -13 2 -14
v -13 3 14
v -13 3 13
v -13 3 -13
v -13 3 -14
v -13 29 14
v -13 29 13
v -13 29 -13
v -13 29 -14
v -13 30 14
v -13 30 13
v -13 30 -13
v -13 30 -14
v -1 1 15
v -1 1 1
v -1 1 -1
v -1 1 -15
v -1 2 14
v -1 2 1
v -1 2 -1
v -1 2 -14
v -1 15 15
v -1 15 14
v -1 15 -14
v -1 15 -15
v -1 17 15
v -1 17 14
v -1 17 -14
v -1 17 -15
v -1 30 14
v -1 30 1
v -1 30 -1
v -1 30 -14
v -1 31 15
v -1 31 1
v -1 31 -1
v -1 31 -15
v 1 1 15
v 1 1 1
v 1 1 -1
v 1 1 -15
v 1 2 14
v 1 2 1
v 1 2 -1
v 1 2 -14
v 1 15 15
v 1 15 14
v 1 15 -14
v 1 15 -15
v 1 17 15
v 1 17 14
v 1 17 -14
v 1 17 -15
v 1 30 14
v 1 30 1
v 1 30 -1
v 1 30 -14
v 1 31 15
v 1 31 1
v 1 31 -1
v 1 31 -15
v 13 2 14
v 13 2 13
v 13 2 -13
v 13 2 -14
v 13 3 14
v 13 3 13
v 13 3 -13
v 13 3 -14
v 13 29 14
v 13 29 13
v 13 29 -13
v 13 29 -14
v 13 30 14
v 13 30 13
v 13 30 -13
v 13 30 -14
v 14 2 13
v 14 2 1
v 14 2 -1
v 14 2 -13
v 14 3 14
v 14 3 13
v 14 3 -13
v 14 3 -14
v 14 15 14
v 14 15 1
v 14 15 -1
v 14 15 -14
v 14 17 14
v 14 17 1
v 14 17 -1
v 14 17 -14
v 14 29 14
v 14 29 13
v 14 29 -13
v 14 29 -14
v 14 30 13
v 14 30 1
v 14 30 -1
v 14 30 -13
v 15 1 1
v 15 1 -1
v 15 15 15
v 15 15 1
v 15 15 -1
v 15 15 -15
v 15 17 15
v 15 17 1
v 15 17 -1
v 15 17 -15
v 15 31 1
v 15 31 -1
v -15 15 15
v -15 17 15
v -1 1 15
v -1 15 15
v -1 17 15
v -1 31 15
v 1 1 15
v 1 15 15
v 1 17 15
v 1 31 15
v 15 15 15
v 15 17 15
v -14 3 14
v -14 15 14
v -14 17 14
v -14 29 14
v -13 2 14
v -13 3 14
v -13 29 14
v -13 30 14
v -1 2 14
v -1 15 14
v -1 17 14
v -1 30 14
v 1 2 14
v 1 15 14
v 1 17 14
v 1 30 14
v 13 2 14
v 13 3 14
v 13 29 14
v 13 30 14
v 14 3 14
v 14 15 14
v 14 17 14
v 14 29 14
v -14 2 13
v -14 3 13
v -14 29 13
v -14 30 13
v -13 2 13
v -13 3 13
v -13 29 13
v -13 30 13
v 13 2 13
v 13 3 13
v 13 29 13
v 13 30 13
v 14 2 13
v 14 3 13
v 14 29 13
v 14 30 13
v -15 1 1
v -15 15 1
v -15 17 1
v -15 31 1
v -14 2 1
v -14 15 1
v -14 17 1
v -14 30 1
v -1 1 1
v -1 2 1
v -1 30 1
v -1 31 1
v 1 1 1
v 1 2 1
v 1 30 1
v 1 31 1
v 14 2 1
v 14 15 1
v 14 17 1
v 14 30 1
v 15 1 1
v 15 15 1
v 15 17 1
v 15 31 1
v -15 1 -1
v -15 15 -1
v -15 17 -1
v -15 31 -1
v -14 2 -1
v -14 15 -1
v -14 17 -1
v -14 30 -1
v -1 1 -1
v -1 2 -1
v -1 30 -1
v -1 31 -1
v 1 1 -1
v 1 2 -1
v 1 30 -1
v 1 31 -1
v 14 2 -1
v 14 15 -1
v 14 17 -1
v 14 30 -1
v 15 1 -1
v 15 15 -1
v 15 17 -1
v 15 31 -1
v -14 2 -13
v -14 3 -13
v -14 29 -13
v -14 30 -13
v -13 2 -13
v -13 3 -13
v -13 29 -13
v -13 30 -13
v 13 2 -13
v 13 3 -13
v 13 29 -13
v 13 30 -13
v 14 2 -13
v 14 3 -13
v 14 29 -13
v 14 30 -13
v -14 3 -14
v -14 15 -14
v -14 17 -14
v -14 29 -14
v -13 2 -14
v -13 3 -14
v -13 29 -14
v -13 30 -14
v -1 2 -14
v -1 15 -14
v -1 17 -14
v -1 30 -14
v 1 2 -14
v 1 15 -14
v 1 17 -14
v 1 30 -14
v 13 2 -14
v 13 3 -14
v 13 29 -14
v 13 30 -14
v 14 3 -14
v 14 15 -14
v 14 17 -14
v 14 29 -14
v -15 15 -15
v -15 17 -15
v -1 1 -15
v -1 15 -15
v -1 17 -15
v -1 31 -15
v 1 1 -15
v 1 15 -15
v 1 17 -15
v 1 31 -15
v 15 15 -15
v 15 17 -15
v -1 1 15
v 1 1 15
v -15 1 1
v -1 1 1
v 1 1 1
v 15 1 1
v -15 1 -1
v -1 1 -1
v 1 1 -1
v 15 1 -1
v -1 1 -15
v 1 1 -15
v -13 2 14
v -1 2 14
v 1 2 14
v 13 2 14
v -14 2 13
v -13 2 13
v 13 2 13
v 14 2 13
v -14 2 1
v -1 2 1
v 1 2 1
v 14 2 1
v -14 2 -1
v -1 2 -1
v 1 2 -1
v 14 2 -1
v -14 2 -13
v -13 2 -13
v 13 2 -13
v 14 2 -13
v -13 2 -14
v -1 2 -14
v 1 2 -14
v 13 2 -14
v -14 3 14
v -13 3 14
v 13 3 14
v 14 3 14
v -14 3 13
v -13 3 13
v 13 3 13
v 14 3 13
v -14 3 -13
v -13 3 -13
v 13 3 -13
v 14 3 -13
v -14 3 -14
v -13 3 -14
v 13 3 -14
v 14 3 -14
v -15 15 15
v -1 15 15
v 1 15 15
v 15 15 15
v -14 15 14
v -1 15 14
v 1 15 14
v 14 15 14
v -15 15 1
v -14 15 1
v 14 15 1
v 15 15 1
v -15 15 -1
v -14 15 -1
v 14 15 -1
v 15 15 -1
v -14 15 -14
v -1 15 -14
v 1 15 -14
v 14 15 -14
v -15 15 -15
v -1 15 -15
v 1 15 -15
v 15 15 -15
v -15 17 15
v -1 17 15
v 1 17 15
v 15 17 15
v -14 17 14
v -1 17 14
v 1 17 14
v 14 17 14
v -15 17 1
v -14 17 1
v 14 17 1
v 15 17 1
v -15 17 -1
v -14 17 -1
v 14 17 -1
v 15 17 -1
v -14 17 -14
v -1 17 -14
v 1 17 -14
v 14 17 -14
v -15 17 -15
v -1 17 -15
v 1 17 -15
v 15 17 -15
v -14 29 14
v -13 29 14
v 13 29 14
v 14 29 14
v -14 29 13
v -13 29 13
v 13 29 13
v 14 29 13
v -14 29 -13
v -13 29 -13
v 13 29 -13
v 14 29 -13
v -14 29 -14
v -13 29 -14
v 13 29 -14
v 14 29 -14
v -13 30 14
v -1 30 14
v 1 30 14
v 13 30 14
v -14 30 13
v -13 30 13
v 13 30 13
v 14 30 13
v -14 30 1
v -1 30 1
v 1 30 1
v 14 30 1
v -14 30 -1
v -1 30 -1
v 1 30 -1
v 14 30 -1
v -14 30 -13
v -13 30 -13
v 13 30 -13
v 14 30 -13
v -13 30 -14
v -1 30 -14
v 1 30 -14
v 13 30 -14
v -1 31 15
v 1 31 15
v -15 31 1
v -1 31 1
v 1 31 1
v 15 31 1
v -15 31 -1
v -1 31 -1
v 1 31 -1
v 15 31 -1
v -1 31 -15
v 1 31 -15

# faces
f 4/1/1 2/1/1 1/1/1
f 5/1/1 2/1/1 4/1/1
f 7/1/1 4/1/1 3/1/1
f 7/1/1 6/1/1 5/1/1
f 7/1/1 5/1/1 4/1/1
f 8/1/1 6/1/1 7/1/1
f 9/1/1 6/1/1 8/1/1
f 10/1/1 6/1/1 9/1/1
f 11/1/1 9/1/1 8/1/1
f 12/1/1 9/1/1 11/1/1
f 18/2/1 14/2/1 13/2/1
f 19/2/1 16/2/1 15/2/1
f 21/2/1 18/2/1 17/2/1
f 22/2/1 14/2/1 18/2/1
f 22/2/1 18/2/1 21/2/1
f 23/2/1 20/2/1 19/2/1
f 23/2/1 19/2/1 15/2/1
f 24/2/1 20/2/1 23/2/1
f 29/2/1 26/2/1 25/2/1
f 30/2/1 26/2/1 29/2/1
f 31/2/1 28/2/1 27/2/1
f 32/2/1 28/2/1 31/2/1
f 33/2/1 26/2/1 30/2/1
f 34/2/1 26/2/1 33/2/1
f 35/2/1 31/2/1 27/2/1
f 36/2/1 31/2/1 35/2/1
f 41/2/1 38/2/1 37/2/1
f 42/2/1 38/2/1 41/2/1
f 43/2/1 40/2/1 39/2/1
f 44/2/1 40/2/1 43/2/1
f 49/2/1 46/2/1 45/2/1
f 50/2/1 46/2/1 49/2/1
f 51/2/1 48/2/1 47/2/1
f 52/2/1 48/2/1 51/2/1
f 57/1/1 54/1/1 53/1/1
f 58/1/1 54/1/1 57/1/1
f 59/1/1 56/1/1 55/1/1
f 60/1/1 56/1/1 59/1/1
f 61/1/1 57/1/1 53/1/1
f 62/1/1 57/1/1 61/1/1
f 63/1/1 56/1/1 60/1/1
f 64/1/1 56/1/1 63/1/1
f 69/1/1 66/1/1 65/1/1
f 72/1/1 68/1/1 67/1/1
f 73/1/1 70/1/1 69/1/1
f 73/1/1 69/1/1 65/1/1
f 74/1/1 70/1/1 73/1/1
f 75/1/1 72/1/1 71/1/1
f 76/1/1 68/1/1 72/1/1
f 76/1/1 72/1/1 75/1/1
f 77/1/2 78/1/2 81/1/2
f 81/1/2 78/1/2 82/1/2
f 79/1/2 80/1/2 83/1/2
f 83/1/2 80/1/2 84/1/2
f 77/1/2 81/1/2 85/1/2
f 85/1/2 81/1/2 86/1/2
f 84/1/2 80/1/2 87/1/2
f 87/1/2 80/1/2 88/1/2
f 89/1/2 90/1/2 93/1/2
f 91/1/2 92/1/2 96/1/2
f 93/1/2 94/1/2 97/1/2
f 89/1/2 93/1/2 97/1/2
f 97/1/2 94/1/2 98/1/2
f 95/1/2 96/1/2 99/1/2
f 96/1/2 92/1/2 100/1/2
f 99/1/2 96/1/2 100/1/2
f 101/2/2 102/2/2 105/2/2
f 105/2/2 102/2/2 106/2/2
f 103/2/2 104/2/2 107/2/2
f 107/2/2 104/2/2 108/2/2
f 109/2/2 110/2/2 113/2/2
f 113/2/2 110/2/2 114/2/2
f 111/2/2 112/2/2 115/2/2
f 115/2/2 112/2/2 116/2/2
f 117/2/2 118/2/2 122/2/2
f 119/2/2 120/2/2 123/2/2
f 121/2/2 122/2/2 125/2/2
f 122/2/2 118/2/2 126/2/2
f 125/2/2 122/2/2 126/2/2
f 123/2/2 124/2/2 127/2/2
f 119/2/2 123/2/2 127/2/2
f 127/2/2 124/2/2 128/2/2
f 129/2/2 130/2/2 133/2/2
f 133/2/2 130/2/2 134/2/2
f 131/2/2 132/2/2 135/2/2
f 135/2/2 132/2/2 136/2/2
f 134/2/2 130/2/2 137/2/2
f 137/2/2 130/2/2 138/2/2
f 131/2/2 135/2/2 139/2/2
f 139/2/2 135/2/2 140/2/2
f 141/1/2 142/1/2 144/1/2
f 144/1/2 142/1/2 145/1/2
f 143/1/2 144/1/2 147/1/2
f 145/1/2 146/1/2 147/1/2
f 144/1/2 145/1/2 147/1/2
f 147/1/2 146/1/2 148/1/2
f 148/1/2 146/1/2 149/1/2
f 149/1/2 146/1/2 150/1/2
f 148/1/2 149/1/2 151/1/2
f 151/1/2 149/1/2 152/1/2
f 156/1/3 154/1/3 153/1/3
f 157/1/3 154/1/3 156/1/3
f 159/1/3 156/1/3 155/1/3
f 159/1/3 158/1/3 157/1/3
f 159/1/3 157/1/3 156/1/3
f 160/1/3 158/1/3 159/1/3
f 161/1/3 158/1/3 160/1/3
f 162/1/3 158/1/3 161/1/3
f 163/1/3 161/1/3 160/1/3
f 164/1/3 161/1/3 163/1/3
f 170/2/3 166/2/3 165/2/3
f 171/2/3 168/2/3 167/2/3
f 173/2/3 170/2/3 169/2/3
f 174/2/3 166/2/3 170/2/3
f 174/2/3 170/2/3 173/2/3
f 175/2/3 172/2/3 171/2/3
f 175/2/3 171/2/3 167/2/3
f 176/2/3 172/2/3 175/2/3
f 181/2/3 178/2/3 177/2/3
f 182/2/3 178/2/3 181/2/3
f 183/2/3 180/2/3 179/2/3
f 184/2/3 180/2/3 183/2/3
f 185/2/3 178/2/3 182/2/3
f 186/2/3 178/2/3 185/2/3
f 187/2/3 183/2/3 179/2/3
f 188/2/3 183/2/3 187/2/3
f 193/2/3 190/2/3 189/2/3
f 194/2/3 190/2/3 193/2/3
f 195/2/3 192/2/3 191/2/3
f 196/2/3 192/2/3 195/2/3
f 201/2/3 198/2/3 197/2/3
f 202/2/3 198/2/3 201/2/3
f 203/2/3 200/2/3 199/2/3
f 204/2/3 200/2/3 203/2/3
f 209/1/3 206/1/3 205/1/3
f 210/1/3 206/1/3 209/1/3
f 211/1/3 208/1/3 207/1/3
f 212/1/3 208/1/3 211/1/3
f 213/1/3 209/1/3 205/1/3
f 214/1/3 209/1/3 213/1/3
f 215/1/3 208/1/3 212/1/3
f 216/1/3 208/1/3 215/1/3
f 221/1/3 218/1/3 217/1/3
f 224/1/3 220/1/3 219/1/3
f 225/1/3 222/1/3 221/1/3
f 225/1/3 221/1/3 217/1/3
f 226/1/3 222/1/3 225/1/3
f 227/1/3 224/1/3 223/1/3
f 228/1/3 220/1/3 224/1/3
f 228/1/3 224/1/3 227/1/3
f 229/1/4 230/1/4 233/1/4
f 233/1/4 230/1/4 234/1/4
f 231/1/4 232/1/4 235/1/4
f 235/1/4 232/1/4 236/1/4
f 229/1/4 233/1/4 237/1/4
f 237/1/4 233/1/4 238/1/4
f 236/1/4 232/1/4 239/1/4
f 239/1/4 232/1/4 240/1/4
f 241/1/4 242/1/4 245/1/4
f 243/1/4 244/1/4 248/1/4
f 245/1/4 246/1/4 249/1/4
f 241/1/4 245/1/4 249/1/4
f 249/1/4 246/1/4 250/1/4
f 247/1/4 248/1/4 251/1/4
f 248/1/4 244/1/4 252/1/4
f 251/1/4 248/1/4 252/1/4
f 253/2/4 254/2/4 257/2/4
f 257/2/4 254/2/4 258/2/4
f 255/2/4 256/2/4 259/2/4
f 259/2/4 256/2/4 260/2/4
f 261/2/4 262/2/4 265/2/4
f 265/2/4 262/2/4 266/2/4
f 263/2/4 264/2/4 267/2/4
f 267/2/4 264/2/4 268/2/4
f 269/2/4 270/2/4 274/2/4
f 271/2/4 272/2/4 275/2/4
f 273/2/4 274/2/4 277/2/4
f 274/2/4 270/2/4 278/2/4
f 277/2/4 274/2/4 278/2/4
f 275/2/4 276/2/4 279/2/4
f 271/2/4 275/2/4 279/2/4
f 279/2/4 276/2/4 280/2/4
f 281/2/4 282/2/4 285/2/4
f 285/2/4 282/2/4 286/2/4
f 283/2/4 284/2/4 287/2/4
f 287/2/4 284/2/4 288/2/4
f 286/2/4 282/2/4 289/2/4
f 289/2/4 282/2/4 290/2/4
f 283/2/4 287/2/4 291/2/4
f 291/2/4 287/2/4 292/2/4
f 293/1/4 294/1/4 296/1/4
f 296/1/4 294/1/4 297/1/4
f 295/1/4 296/1/4 299/1/4
f 297/1/4 298/1/4 299/1/4
f 296/1/4 297/1/4 299/1/4
f 299/1/4 298/1/4 300/1/4
f 300/1/4 298/1/4 301/1/4
f 301/1/4 298/1/4 302/1/4
f 300/1/4 301/1/4 303/1/4
f 303/1/4 301/1/4 304/1/4
f 308/1/5 306/1/5 305/1/5
f 309/1/5 306/1/5 308/1/5
f 311/1/5 308/1/5 307/1/5
f 311/1/5 310/1/5 309/1/5
f 311/1/5 309/1/5 308/1/5
f 312/1/5 310/1/5 311/1/5
f 313/1/5 310/1/5 312/1/5
f 314/1/5 310/1/5 313/1/5
f 315/1/5 313/1/5 312/1/5
f 316/1/5 313/1/5 315/1/5
f 322/2/5 318/2/5 317/2/5
f 323/2/5 320/2/5 319/2/5
f 325/2/5 322/2/5 321/2/5
f 326/2/5 318/2/5 322/2/5
f 326/2/5 322/2/5 325/2/5
f 327/2/5 324/2/5 323/2/5
f 327/2/5 323/2/5 319/2/5
f 328/2/5 324/2/5 327/2/5
f 333/2/5 330/2/5 329/2/5
f 334/2/5 330/2/5 333/2/5
f 335/2/5 332/2/5 331/2/5
f 336/2/5 332/2/5 335/2/5
f 337/2/5 330/2/5 334/2/5
f 338/2/5 330/2/5 337/2/5
f 339/2/5 335/2/5 331/2/5
f 340/2/5 335/2/5 339/2/5
f 345/2/5 342/2/5 341/2/5
f 346/2/5 342/2/5 345/2/5
f 347/2/5 344/2/5 343/2/5
f 348/2/5 344/2/5 347/2/5
f 353/2/5 350/2/5 349/2/5
f 354/2/5 350/2/5 353/2/5
f 355/2/5 352/2/5 351/2/5
f 356/2/5 352/2/5 355/2/5
f 361/1/5 358/1/5 357/1/5
f 362/1/5 358/1/5 361/1/5
f 363/1/5 360/1/5 359/1/5
f 364/1/5 360/1/5 363/1/5
f 365/1/5 361/1/5 357/1/5
f 366/1/5 361/1/5 365/1/5
f 367/1/5 360/1/5 364/1/5
f 368/1/5 360/1/5 367/1/5
f 373/1/5 370/1/5 369/1/5
f 376/1/5 372/1/5 371/1/5
f 377/1/5 374/1/5 373/1/5
f 377/1/5 373/1/5 369/1/5
f 378/1/5 374/1/5 377/1/5
f 379/1/5 376/1/5 375/1/5
f 380/1/5 372/1/5 376/1/5
f 380/1/5 376/1/5 379/1/5
f 381/1/6 382/1/6 385/1/6
f 385/1/6 382/1/6 386/1/6
f 383/1/6 384/1/6 387/1/6
f 387/1/6 384/1/6 388/1/6
f 381/1/6 385/1/6 389/1/6
f 389/1/6 385/1/6 390/1/6
f 388/1/6 384/1/6 391/1/6
f 391/1/6 384/1/6 392/1/6
f 393/1/6 394/1/6 397/1/6
f 395/1/6 396/1/6 400/1/6
f 397/1/6 398/1/6 401/1/6
f 393/1/6 397/1/6 401/1/6
f 401/1/6 398/1/6 402/1/6
f 399/1/6 400/1/6 403/1/6
f 400/1/6 396/1/6 404/1/6
f 403/1/6 400/1/6 404/1/6
f 405/2/6 406/2/6 409/2/6
f 409/2/6 406/2/6 410/2/6
f 407/2/6 408/2/6 411/2/6
f 411/2/6 408/2/6 412/2/6
f 413/2/6 414/2/6 417/2/6
f 417/2/6 414/2/6 418/2/6
f 415/2/6 416/2/6 419/2/6
f 419/2/6 416/2/6 420/2/6
f 421/2/6 422/2/6 426/2/6
f 423/2/6 424/2/6 427/2/6
f 425/2/6 426/2/6 429/2/6
f 426/2/6 422/2/6 430/2/6
f 429/2/6 426/2/6 430/2/6
f 427/2/6 428/2/6 431/2/6
f 423/2/6 427/2/6 431/2/6
f 431/2/6 428/2/6 432/2/6
f 433/2/6 434/2/6 437/2/6
f 437/2/6 434/2/6 438/2/6
f 435/2/6 436/2/6 439/2/6
f 439/2/6 436/2/6 440/2/6
f 438/2/6 434/2/6 441/2/6
f 441/2/6 434/2/6 442/2/6
f 435/2/6 439/2/6 443/2/6
f 443/2/6 439/2/6 444/2/6
f 445/1/6 446/1/6 448/1/6
f 448/1/6 446/1/6 449/1/6
f 447/1/6 448/1/6 451/1/6
f 449/1/6 450/1/6 451/1/6
f 448/1/6 449/1/6 451/1/6
f 451/1/6 450/1/6 452/1/6
f 452/1/6 450/1/6 453/1/6
f 453/1/6 450/1/6 454/1/6
f 452/1/6 453/1/6 455/1/6
f 455/1/6 453/1/6 456/1/6
